 <svg version="1.0" xmlns="http://www.w3.org/2000/svg" width="136px" height="66px" viewBox="0 0 700.000000 189.000000" preserveAspectRatio="xMidYMid meet">
<metadata>
Created by potrace 1.12, written by Peter Selinger 2001-2015
</metadata>
<g transform="translate(0.000000,189.000000) scale(0.100000,-0.100000)" fill="#FFFFFF" stroke="none">
<path d="M3481 1527 c-8 -11 -11 -137 -9 -483 l3 -469 25 0 25 0 0 480 c0 431
-2 480 -16 483 -9 1 -21 -3 -28 -11z"></path>
<path d="M433 1475 c-238 -58 -364 -290 -309 -570 28 -147 95 -242 210 -300
59 -29 62 -30 216 -30 168 0 190 6 190 50 0 32 -9 36 -41 20 -42 -22 -250 -20
-307 4 -61 24 -108 65 -146 125 -46 72 -61 135 -60 251 1 196 69 318 214 381
59 25 225 26 284 1 48 -21 72 -21 80 -1 14 37 -3 47 -119 70 -83 17 -142 16
-212 -1z"></path>
<path d="M4482 1478 c-15 -15 -16 -72 -2 -99 14 -26 34 -24 54 6 21 32 20 68
-2 88 -22 20 -34 21 -50 5z"></path>
<path d="M3640 1457 c0 -7 4 -17 9 -22 4 -6 21 -44 35 -85 15 -41 34 -93 43
-115 8 -22 19 -49 23 -60 4 -11 15 -38 23 -60 9 -22 34 -92 57 -155 23 -63 45
-124 50 -135 16 -41 39 -102 65 -172 24 -65 30 -73 52 -73 26 0 52 24 53 48 0
8 6 28 14 45 8 18 26 66 41 107 29 81 52 143 66 175 10 22 52 136 75 205 9 25
22 59 29 75 7 17 25 64 40 105 15 41 34 85 42 98 12 19 12 23 -1 28 -8 3 -25
4 -38 2 -19 -2 -28 -17 -51 -78 -16 -41 -35 -91 -42 -110 -13 -34 -51 -138
-136 -372 -22 -62 -44 -120 -48 -128 -5 -9 -12 -30 -16 -48 -13 -59 -36 -36
-75 78 -21 58 -42 116 -47 130 -6 14 -17 45 -26 70 -8 25 -20 56 -25 70 -6 14
-23 59 -37 100 -15 41 -31 84 -36 95 -10 22 -58 150 -66 178 -6 21 -73 25 -73
4z"></path>
<path d="M1082 1241 c-134 -53 -199 -176 -190 -360 3 -53 9 -105 15 -116 6
-11 19 -37 29 -58 22 -45 54 -76 109 -109 37 -21 51 -23 170 -23 113 1 135 3
165 21 66 39 42 82 -27 49 -27 -13 -63 -18 -137 -18 -92 0 -105 2 -143 26 -23
14 -53 41 -67 60 -26 34 -59 148 -49 173 4 11 47 14 238 14 129 0 236 4 239 8
8 14 -16 176 -31 207 -63 124 -196 176 -321 126z m171 -56 c19 -8 46 -28 60
-44 29 -35 60 -120 55 -153 -3 -23 -4 -23 -197 -26 -107 -1 -198 1 -203 6 -14
14 11 104 40 146 52 76 160 107 245 71z"></path>
<path d="M1794 1241 c-22 -11 -55 -36 -72 -57 -17 -21 -34 -35 -37 -32 -3 3
-7 23 -8 43 -3 42 -28 68 -47 49 -14 -14 -15 -653 -1 -667 5 -5 19 -7 31 -5
l22 3 -1 211 c-2 173 1 219 15 259 36 109 105 159 208 153 l61 -3 0 30 0 30
-65 2 c-45 1 -77 -4 -106 -16z"></path>
<path d="M2260 1240 c-65 -25 -125 -82 -157 -148 -25 -53 -27 -66 -28 -182 0
-139 13 -183 76 -255 60 -68 97 -80 239 -79 140 0 200 17 200 54 0 29 -23 34
-60 15 -46 -24 -223 -25 -265 -2 -75 40 -125 122 -128 207 l-2 45 235 5 235 5
3 59 c11 204 -169 347 -348 276z m173 -55 c47 -19 85 -71 103 -137 24 -91 31
-88 -197 -88 l-199 0 0 25 c0 45 40 133 73 161 64 54 148 69 220 39z"></path>
<path d="M2915 1242 c-97 -27 -126 -52 -92 -80 9 -8 21 -7 42 3 57 25 98 35
150 35 104 0 155 -45 169 -147 10 -76 4 -83 -68 -83 -136 0 -277 -42 -329 -99
-68 -75 -55 -204 29 -267 36 -28 43 -29 138 -29 109 0 126 6 193 68 24 23 34
27 37 16 2 -8 9 -27 14 -44 6 -20 15 -30 28 -30 18 0 19 10 18 260 0 244 -2
263 -21 300 -55 104 -160 137 -308 97z m249 -328 c12 -5 16 -21 16 -69 0 -75
-17 -119 -62 -161 -49 -47 -74 -56 -152 -57 -59 -1 -77 2 -103 21 -38 27 -57
79 -48 130 15 87 93 124 280 135 28 2 51 4 52 5 1 1 8 -1 17 -4z"></path>
<path d="M4846 1242 c-98 -33 -143 -107 -117 -192 17 -56 58 -92 147 -129 160
-67 180 -77 206 -104 21 -21 28 -37 28 -68 0 -54 -13 -75 -60 -99 -51 -26
-218 -29 -280 -4 -22 9 -47 14 -55 10 -27 -10 -17 -44 18 -63 43 -23 288 -26
333 -3 104 51 142 155 88 236 -40 59 -60 70 -248 144 -32 13 -71 34 -87 48
-24 20 -29 31 -29 71 0 37 5 52 23 68 49 44 143 55 252 27 90 -23 90 -23 90
10 0 28 -3 31 -70 48 -85 21 -174 22 -239 0z"></path>
<path d="M6694 1223 c-35 -35 -36 -38 -31 -89 l5 -52 -56 -54 c-31 -29 -83
-75 -114 -102 l-57 -48 -30 21 c-36 26 -116 29 -143 5 -20 -19 -18 -21 -156
101 -56 50 -85 84 -100 118 -22 50 -63 77 -117 77 -36 0 -105 -71 -105 -108 0
-24 -15 -41 -82 -98 -46 -38 -103 -88 -128 -111 -44 -42 -73 -53 -85 -33 -9
15 -77 11 -99 -5 -33 -25 -56 -69 -56 -107 0 -30 7 -42 42 -72 54 -46 102 -49
140 -8 39 42 49 67 42 110 l-6 39 126 107 125 107 40 -26 c50 -31 62 -31 111
0 22 14 45 25 51 25 7 0 41 -26 77 -57 130 -114 142 -128 142 -162 0 -24 9
-42 35 -68 33 -33 38 -35 83 -29 53 8 102 50 102 89 0 30 0 29 125 137 150
130 139 123 167 109 21 -9 34 -7 74 13 41 20 50 29 57 61 21 87 -21 147 -102
147 -33 0 -47 -6 -77 -37z m123 -35 c13 -12 23 -32 23 -44 0 -23 -42 -64 -65
-64 -27 0 -65 41 -65 70 0 55 65 78 107 38z m-865 -55 c24 -21 23 -58 -2 -83
-26 -26 -60 -25 -88 0 -26 24 -28 47 -6 78 18 27 69 30 96 5z m433 -279 c24
-25 16 -75 -16 -93 -36 -20 -74 -8 -89 28 -10 24 -9 33 5 55 20 31 74 36 100
10z m-882 -76 c22 -27 22 -49 -3 -76 -26 -28 -50 -28 -84 -1 -38 30 -34 73 9
97 25 14 55 6 78 -20z"></path>
<path d="M4475 1238 c-3 -7 -4 -159 -3 -338 l3 -325 25 0 25 0 0 335 0 335
-23 3 c-12 2 -24 -3 -27 -10z"></path>
</g>
</svg>
